<?xml version="1.0" encoding="UTF-8"?>
<svg version="1.1" xmlns="http://www.w3.org/2000/svg" width="128" height="128">
<path d="M0 0 C0.84732193 0.00359528 1.69464386 0.00719055 2.56764221 0.01089478 C3.89922363 0.01067574 3.89922363 0.01067574 5.25770569 0.01045227 C8.20666404 0.01115174 11.15556006 0.01894568 14.10450745 0.02676392 C16.14332037 0.02862798 18.18213374 0.03005194 20.22094727 0.03105164 C25.59844693 0.03487776 30.97591978 0.04470884 36.35340881 0.05575562 C41.83619321 0.06596771 47.31898192 0.07054882 52.80177307 0.07559204 C63.56806282 0.08633103 74.33432559 0.10392859 85.1006012 0.12442017 C85.1006012 12.33442017 85.1006012 24.54442017 85.1006012 37.12442017 C83.4506012 37.12442017 81.8006012 37.12442017 80.1006012 37.12442017 C80.60720276 38.34065063 80.60720276 38.34065063 81.1240387 39.58145142 C87.61321334 55.69185898 88.96797655 70.25798395 84.1006012 87.12442017 C83.09594882 89.17462679 82.03469564 91.19827753 80.9131012 93.18692017 C77.37108927 99.65570622 77.09713383 105.87822795 78.1006012 113.12442017 C79.0906012 114.60942017 79.0906012 114.60942017 80.1006012 116.12442017 C80.3506012 118.68692017 80.3506012 118.68692017 80.1006012 121.12442017 C78.1006012 123.12442017 78.1006012 123.12442017 74.6006012 123.37442017 C71.1006012 123.12442017 71.1006012 123.12442017 69.1006012 121.12442017 C60.95899414 119.9700132 54.37362627 121.26225958 47.04981995 124.83535767 C33.96585678 130.554176 16.5707455 130.00727968 3.2021637 125.44473267 C-14.0185545 118.11399873 -25.8925376 106.05827002 -33.3368988 88.99942017 C-39.12301527 72.85641944 -37.95253924 55.22988605 -31.18455505 39.55801392 C-26.56264888 30.80589372 -19.52000454 20.88362662 -10.4618988 16.43692017 C-7.13151187 13.43144903 -7.40211914 11.8309006 -7.0868988 7.43692017 C-7.05982849 6.27805298 -7.03275818 5.11918579 -7.00486755 3.92520142 C-6.81490198 -1.11944005 -4.4578536 0.00798898 0 0 Z " fill="#E8F4FE" transform="translate(38.89939880371094,-0.124420166015625)"/>
<path d="M0 0 C0.84732193 0.00359528 1.69464386 0.00719055 2.56764221 0.01089478 C3.89922363 0.01067574 3.89922363 0.01067574 5.25770569 0.01045227 C8.20666404 0.01115174 11.15556006 0.01894568 14.10450745 0.02676392 C16.14332037 0.02862798 18.18213374 0.03005194 20.22094727 0.03105164 C25.59844693 0.03487776 30.97591978 0.04470884 36.35340881 0.05575562 C41.83619321 0.06596771 47.31898192 0.07054882 52.80177307 0.07559204 C63.56806282 0.08633103 74.33432559 0.10392859 85.1006012 0.12442017 C85.1006012 12.33442017 85.1006012 24.54442017 85.1006012 37.12442017 C73.38332989 37.14697006 61.66607288 37.1653346 49.94878483 37.17623234 C44.50857808 37.18146145 39.06838688 37.1885596 33.62818909 37.19985962 C28.38274418 37.21068751 23.13731427 37.21669679 17.89185905 37.21929741 C15.88589173 37.22115184 13.87992528 37.22477278 11.87396431 37.23015022 C9.07457295 37.23735936 6.27524441 37.23841116 3.47584534 37.23794556 C2.21888855 37.24333847 2.21888855 37.24333847 0.9365387 37.24884033 C-4.78534664 37.23847233 -4.78534664 37.23847233 -5.8993988 36.12442017 C-6.05708514 34.64468106 -6.15043592 33.15797592 -6.21580505 31.67129517 C-6.25786072 30.74727905 -6.29991638 29.82326294 -6.34324646 28.87124634 C-6.40197937 27.38781738 -6.40197937 27.38781738 -6.4618988 25.87442017 C-6.5036322 24.87837769 -6.5453656 23.88233521 -6.58836365 22.85610962 C-7.23472538 6.59813339 -7.23472538 6.59813339 -6.8993988 1.12442017 C-5.0546798 -0.72029884 -2.45423468 0.00439827 0 0 Z " fill="#0893F9" transform="translate(38.89939880371094,-0.124420166015625)"/>
<path d="M0 0 C0.33 7.26 0.66 14.52 1 22 C29.05 22.33 57.1 22.66 86 23 C93.0763754 41.39857605 96.20631627 57.7903876 88.53515625 76.58984375 C84.58807934 84.70596033 84.58807934 84.70596033 82 86 C81.67 68.18 81.34 50.36 81 32 C48.66 32 16.32 32 -17 32 C-17.33 51.14 -17.66 70.28 -18 90 C-28.08057974 77.39927533 -32.14461242 63.0041344 -31 47 C-28.23064904 28.93813014 -20.87370673 14.05402318 -6.234375 2.62109375 C-2.4716899 0 -2.4716899 0 0 0 Z " fill="#FAD1A5" transform="translate(33,14)"/>
<path d="M0 0 C0.91120605 0.00202423 1.82241211 0.00404846 2.76123047 0.00613403 C3.71562012 0.00438171 4.67000977 0.00262939 5.65332031 0.00082397 C8.82472524 -0.0035963 11.99607492 -0.00065593 15.16748047 0.00271606 C17.36083995 0.00204308 19.55419937 0.00107309 21.74755859 -0.00018311 C26.35108142 -0.00166032 30.95458489 0.00049523 35.55810547 0.00515747 C41.47352642 0.01085477 47.388902 0.00757589 53.30432129 0.00158501 C57.83545273 -0.00201998 62.36657332 -0.00088231 66.89770508 0.0017128 C69.07950852 0.00238224 71.26131293 0.00155305 73.44311523 -0.00076675 C76.48668036 -0.00329225 79.53017093 0.00054587 82.57373047 0.00613403 C83.48493652 0.0041098 84.39614258 0.00208557 85.33496094 0 C91.55321817 0.02126627 91.55321817 0.02126627 92.66748047 1.13552856 C92.66748047 4.76552856 92.66748047 8.39552856 92.66748047 12.13552856 C59.66748047 12.13552856 26.66748047 12.13552856 -7.33251953 12.13552856 C-7.33251953 0.02507702 -7.33251953 0.02507702 0 0 Z " fill="#0B93F7" transform="translate(22.33251953125,44.864471435546875)"/>
<path d="M0 0 C33 0 66 0 100 0 C100 0.33 100 0.66 100 1 C71.29 1 42.58 1 13 1 C13 3.64 13 6.28 13 9 C14.65 9 16.3 9 18 9 C18 13.95 18 18.9 18 24 C25.92 24 33.84 24 42 24 C42 25.32 42 26.64 42 28 C32.43 28 22.86 28 13 28 C13.33 29.32 13.66 30.64 14 32 C23.57 32 33.14 32 43 32 C42.67 33.32 42.34 34.64 42 36 C33.09 36 24.18 36 15 36 C14.67 36.99 14.34 37.98 14 39 C23.57 39 33.14 39 43 39 C43 39.99 43 40.98 43 42 C33.76 42.33 24.52 42.66 15 43 C13.89485234 46.31544299 13.67892369 49.20410111 13.4375 52.6875 C13.35371094 53.86699219 13.26992188 55.04648438 13.18359375 56.26171875 C13.12300781 57.16535156 13.06242187 58.06898437 13 59 C8 57 8 57 0 48 C0 32.16 0 16.32 0 0 Z " fill="#D0E8FA" transform="translate(15,57)"/>
<path d="M0 0 C2.88884082 2.01590848 4.73155602 4.41409265 6.796875 7.25390625 C5.806875 8.57390625 4.816875 9.89390625 3.796875 11.25390625 C0.796875 10.25390625 0.796875 10.25390625 -1.578125 7.81640625 C-5.2295897 4.25188119 -7.65756181 3.39190296 -12.703125 2.94140625 C-16.43244437 3.27438119 -18.16373363 4.16975217 -21.203125 6.25390625 C-21.863125 6.25390625 -22.523125 6.25390625 -23.203125 6.25390625 C-23.5125 6.87265625 -23.821875 7.49140625 -24.140625 8.12890625 C-24.828125 9.50390625 -25.515625 10.87890625 -26.203125 12.25390625 C-26.72161059 17.45576163 -26.82330513 21.88950996 -24.640625 26.69140625 C-20.99913441 30.51963994 -17.610457 32.84414761 -12.265625 33.75390625 C-7.37879228 32.95605601 -2.91603176 31.5764063 0.125 27.453125 C1.82502553 24.18628489 2.91823672 20.94558198 3.796875 17.37890625 C4.796875 14.25390625 4.796875 14.25390625 6.921875 12.81640625 C7.540625 12.63078125 8.159375 12.44515625 8.796875 12.25390625 C11.55972904 17.77961434 9.22247306 23.81605302 7.453125 29.3125 C7.2365625 29.95316406 7.02 30.59382813 6.796875 31.25390625 C8.48300041 33.01250124 9.85182605 34.28530685 11.984375 35.50390625 C17.3381915 38.83516985 22.08695394 41.84806265 23.921875 48.06640625 C23.796875 51.25390625 23.796875 51.25390625 21.796875 53.25390625 C18.5 53.703125 18.5 53.703125 14.796875 53.25390625 C12.03125 51.0234375 12.03125 51.0234375 9.546875 48.06640625 C8.71671875 47.10347656 7.8865625 46.14054687 7.03125 45.1484375 C4.796875 42.25390625 4.796875 42.25390625 3.1875 39.390625 C2.49914062 38.33294922 2.49914062 38.33294922 1.796875 37.25390625 C-1.16180762 37.06088323 -1.16180762 37.06088323 -3.52734375 38.2265625 C-8.86571276 40.27618447 -15.22193255 40.39262402 -20.5859375 38.34375 C-25.82049069 35.24879555 -29.45477725 31.25107383 -32.515625 26.00390625 C-34.21422251 19.20951622 -33.91122142 13.12526478 -30.40625 7.00390625 C-22.75231535 -4.1290896 -11.5953992 -6.28470637 0 0 Z " fill="#FC4F5C" transform="translate(95.203125,69.74609375)"/>
<path d="M0 0 C3.74894976 1.72712128 7.06656227 3.35137452 8.88671875 7.234375 C8.72382138 9.92218158 8.11770978 10.97566504 6.32421875 12.984375 C5.84984375 13.396875 5.37546875 13.809375 4.88671875 14.234375 C1.52080009 12.79183843 -0.62375204 10.90172773 -3.11328125 8.234375 C-5.95568108 9.39238974 -7.46354464 10.58463839 -9.67578125 12.796875 C-12.11328125 15.234375 -12.11328125 15.234375 -15.11328125 16.234375 C-15.11328125 17.554375 -15.11328125 18.874375 -15.11328125 20.234375 C-11.17300337 20.68322233 -11.17300337 20.68322233 -9.19140625 18.484375 C-8.588125 17.741875 -7.98484375 16.999375 -7.36328125 16.234375 C-6.7496875 15.491875 -6.13609375 14.749375 -5.50390625 13.984375 C-5.045 13.406875 -4.58609375 12.829375 -4.11328125 12.234375 C-0.64828125 15.204375 -0.64828125 15.204375 2.88671875 18.234375 C5.9362327 16.70961803 8.25071381 15.30552174 10.88671875 13.234375 C10.48697645 19.03063833 9.87512007 22.73464017 5.88671875 27.234375 C1.955558 30.17829855 -1.73950281 31.58681445 -6.67578125 31.359375 C-11.60759582 30.53171754 -14.92315061 28.00774282 -18.11328125 24.234375 C-21.0374179 19.56944797 -20.72378006 14.55885196 -20.11328125 9.234375 C-16.47439668 1.22882895 -8.61707505 -3.1218978 0 0 Z " fill="#FAF9FA" transform="translate(88.11328125,72.765625)"/>
<path d="M0 0 C1.32 0.33 2.64 0.66 4 1 C4 6.94 4 12.88 4 19 C4.99 19 5.98 19 7 19 C7 14.05 7 9.1 7 4 C8.32 4.33 9.64 4.66 11 5 C11 9.62 11 14.24 11 19 C11.99 19 12.98 19 14 19 C14 16.36 14 13.72 14 11 C14.99 10.67 15.98 10.34 17 10 C17 12.97 17 15.94 17 19 C18.32 19 19.64 19 21 19 C21 14.05 21 9.1 21 4 C21.99 4 22.98 4 24 4 C24 8.95 24 13.9 24 19 C24.99 19 25.98 19 27 19 C27 17.35 27 15.7 27 14 C28.32 13.67 29.64 13.34 31 13 C31 14.98 31 16.96 31 19 C32.65 19.33 34.3 19.66 36 20 C36 20.99 36 21.98 36 23 C20.49 23 4.98 23 -11 23 C-11 21.68 -11 20.36 -11 19 C-9.68 19 -8.36 19 -7 19 C-7 16.36 -7 13.72 -7 11 C-5.68 11 -4.36 11 -3 11 C-3 13.64 -3 16.28 -3 19 C-2.01 19 -1.02 19 0 19 C0 12.73 0 6.46 0 0 Z " fill="#D5EAF5" transform="translate(82,7)"/>
<path d="M0 0 C21.12 0 42.24 0 64 0 C60.82797964 3.17202036 58.7679889 4.07967462 54.625 5.625 C52.94277344 6.26308594 52.94277344 6.26308594 51.2265625 6.9140625 C36.70123686 11.80273142 18.32334909 10.44993712 4.59765625 3.84375 C2.625 2.75 2.625 2.75 0 1 C0 0.67 0 0.34 0 0 Z " fill="#FDD2A5" transform="translate(32,119)"/>
<path d="M0 0 C0 3.63 0 7.26 0 11 C3.96 11 7.92 11 12 11 C11.76130833 15.05775837 11.34285287 17.507149 9 20.875 C5.05616724 23.66854821 1.80940595 24.43259207 -3 24 C-7.41662206 21.87347827 -10.0983726 19.54277658 -12 15 C-12.55438343 10.6441302 -12.30805175 8.56299114 -10.1875 4.6875 C-6.73415231 0.4448157 -5.62418588 0 0 0 Z " fill="#F6CE60" transform="translate(52,8)"/>
<path d="M0 0 C1.51400391 0.01740234 1.51400391 0.01740234 3.05859375 0.03515625 C4.07050781 0.04417969 5.08242188 0.05320313 6.125 0.0625 C7.29869141 0.07990234 7.29869141 0.07990234 8.49609375 0.09765625 C8.38153694 2.01497543 8.25403117 3.93152375 8.12109375 5.84765625 C8.05148438 6.915 7.981875 7.98234375 7.91015625 9.08203125 C7.51688286 11.9462488 6.83379238 13.59348442 5.49609375 16.09765625 C5.09870641 20.6973905 5.09870641 20.6973905 6.47265625 24.98828125 C7.6917299 27.50087579 7.90199015 29.57234397 8.12109375 32.34765625 C8.19585937 33.2396875 8.270625 34.13171875 8.34765625 35.05078125 C8.39664063 35.72625 8.445625 36.40171875 8.49609375 37.09765625 C6.85034809 37.12453776 5.20447962 37.14399748 3.55859375 37.16015625 C2.64207031 37.17175781 1.72554687 37.18335938 0.78125 37.1953125 C-1.50390625 37.09765625 -1.50390625 37.09765625 -2.50390625 36.09765625 C-2.66159259 34.61791715 -2.75494337 33.13121201 -2.8203125 31.64453125 C-2.86236816 30.72051514 -2.90442383 29.79649902 -2.94775391 28.84448242 C-3.00648682 27.36105347 -3.00648682 27.36105347 -3.06640625 25.84765625 C-3.10813965 24.85161377 -3.14987305 23.85557129 -3.19287109 22.8293457 C-3.83923283 6.57136948 -3.83923283 6.57136948 -3.50390625 1.09765625 C-2.50390625 0.09765625 -2.50390625 0.09765625 0 0 Z " fill="#0182FB" transform="translate(35.50390625,-0.09765625)"/>
<path d="M0 0 C2.31 0 4.62 0 7 0 C7 4.95 7 9.9 7 15 C14.92 15 22.84 15 31 15 C31 16.32 31 17.64 31 19 C19.78 19 8.56 19 -3 19 C-3 17.68 -3 16.36 -3 15 C-2.01 15 -1.02 15 0 15 C0 10.05 0 5.1 0 0 Z " fill="#66B9FE" transform="translate(26,66)"/>
<path d="M0 0 C1.0828125 0.8971875 1.0828125 0.8971875 2.1875 1.8125 C4.8333599 3.97895524 4.8333599 3.97895524 7.3125 5.3125 C12.61792194 8.64381145 17.30272238 11.63700363 19.125 17.8125 C19 21 19 21 17 23 C13.703125 23.44921875 13.703125 23.44921875 10 23 C7.234375 20.76953125 7.234375 20.76953125 4.75 17.8125 C3.91984375 16.84957031 3.0896875 15.88664062 2.234375 14.89453125 C-3 8.11363636 -3 8.11363636 -3 4 C-1.5 1.8125 -1.5 1.8125 0 0 Z " fill="#415ACD" transform="translate(100,100)"/>
<path d="M0 0 C-0.33 2.64 -0.66 5.28 -1 8 C-1.69480469 8.03996094 -2.38960937 8.07992187 -3.10546875 8.12109375 C-7.24490855 9.37800867 -9.39866514 11.96455892 -12.3125 15.0625 C-13.13717773 15.91424805 -13.13717773 15.91424805 -13.97851562 16.78320312 C-15.32827365 18.17990925 -16.66541525 19.58878837 -18 21 C-21.40212299 19.38617243 -24.10324519 17.41396234 -27 15 C-29.31 17.64 -31.62 20.28 -34 23 C-35.65 22.67 -37.3 22.34 -39 22 C-38.8125 19.6875 -38.8125 19.6875 -38 17 C-35.75 15.5 -35.75 15.5 -33 14 C-31.2958946 12.37163262 -29.61974559 10.71230248 -28 9 C-24.63408134 10.44253657 -22.48952921 12.33264727 -20 15 C-16.16780823 13.43873668 -13.82638778 10.97133075 -11 8 C-10.4225 7.484375 -9.845 6.96875 -9.25 6.4375 C-7.73499307 4.69524203 -7.38813882 3.25120518 -7 1 C-2.25 0 -2.25 0 0 0 Z " fill="#91CBFC" transform="translate(111,71)"/>
<path d="M0 0 C0.66 0 1.32 0 2 0 C3.84397847 3.68795694 3.52198354 7.41782191 2.24609375 11.28515625 C-0.69652322 18.19742122 -3.86549041 23.14156253 -10.8515625 26.3359375 C-14.44836557 27.44767663 -17.45112624 27.17565571 -21 26 C-23.21527734 24.82637434 -25.00571963 23.54556729 -27 22 C-26.505 20.515 -26.505 20.515 -26 19 C-25.46375 19.33 -24.9275 19.66 -24.375 20 C-20.69592197 21.54908549 -17.80457442 21.55043004 -13.9765625 20.3828125 C-9.04879796 18.31278501 -6.82038937 15.99247068 -4.734375 11.09765625 C-4.0419013 9.11968616 -3.43166246 7.14501 -2.875 5.125 C-2 2 -2 2 0 0 Z " fill="#FB6B76" transform="translate(102,82)"/>
<path d="M0 0 C0.99 0 1.98 0 3 0 C2.67 0.99 2.34 1.98 2 3 C1.62367248 7.59119571 1.62639531 10.12284117 3.4375 14.375 C6.91204803 17.9342931 10.1798639 18.40263271 15 19 C13 22 13 22 11.046875 22.65234375 C6.80244824 23.17928789 4.57434557 23.27653676 0.625 21.375 C-3.18016874 17.93222828 -4.7835424 15.70073825 -5.4375 10.5625 C-4.89070429 6.11002064 -3.17664575 3.17664575 0 0 Z " fill="#F4C14D" transform="translate(45,9)"/>
<path d="M0 0 C1.79244141 0.01740234 1.79244141 0.01740234 3.62109375 0.03515625 C5.41740234 0.04869141 5.41740234 0.04869141 7.25 0.0625 C8.17683594 0.07410156 9.10367187 0.08570313 10.05859375 0.09765625 C9.72859375 4.05765625 9.39859375 8.01765625 9.05859375 12.09765625 C4.76859375 12.09765625 0.47859375 12.09765625 -3.94140625 12.09765625 C-4.0390625 3.6015625 -4.0390625 3.6015625 -3.94140625 1.09765625 C-2.94140625 0.09765625 -2.94140625 0.09765625 0 0 Z " fill="#0182FB" transform="translate(18.94140625,44.90234375)"/>
<path d="M0 0 C7.03795243 0.32583113 13.43661033 1.46255735 18.609375 6.59765625 C19.80205301 8.01479895 20.91056783 9.50203077 22 11 C21.01 12.32 20.02 13.64 19 15 C16 14 16 14 13.625 11.5625 C9.96930277 7.99384318 7.56508523 7.1117918 2.5 6.75 C-0.81006042 6.98643289 -3.0383439 7.56404553 -6 9 C-4.54744301 5.17053157 -2.57104439 3.87949705 1 2 C0.67 1.34 0.34 0.68 0 0 Z " fill="#FC6B76" transform="translate(80,66)"/>
<path d="M0 0 C15.84 0 31.68 0 48 0 C48 0.99 48 1.98 48 3 C32.49 3 16.98 3 1 3 C0.67 2.01 0.34 1.02 0 0 Z " fill="#F7FBFE" transform="translate(70,27)"/>
<path d="M0 0 C6.01696699 0.23595949 6.01696699 0.23595949 8.578125 2.2265625 C11.75105122 5.78242809 12 7.07026651 12 12 C8.04 12 4.08 12 0 12 C0 8.04 0 4.08 0 0 Z " fill="#77CE68" transform="translate(55,5)"/>
<path d="M0 0 C8.58 0 17.16 0 26 0 C25.67 1.32 25.34 2.64 25 4 C16.75 4 8.5 4 0 4 C0 2.68 0 1.36 0 0 Z " fill="#70BEFF" transform="translate(32,89)"/>
<path d="M0 0 C2.31 0 4.62 0 7 0 C7 4.95 7 9.9 7 15 C4.69 15 2.38 15 0 15 C0 10.05 0 5.1 0 0 Z " fill="#82D364" transform="translate(26,66)"/>
<path d="M0 0 C2.64 0 5.28 0 8 0 C8 3.63 8 7.26 8 11 C5.36 11 2.72 11 0 11 C0 7.37 0 3.74 0 0 Z " fill="#FD9B07" transform="translate(45,70)"/>
<path d="M0 0 C8.91 0 17.82 0 27 0 C27 0.99 27 1.98 27 3 C18.09 3 9.18 3 0 3 C0 2.01 0 1.02 0 0 Z " fill="#8BC9FE" transform="translate(31,103)"/>
<path d="M0 0 C8.91 0 17.82 0 27 0 C27 0.99 27 1.98 27 3 C18.09 3 9.18 3 0 3 C0 2.01 0 1.02 0 0 Z " fill="#8BC9FE" transform="translate(31,96)"/>
<path d="M0 0 C1.32 0.33 2.64 0.66 4 1 C4 6.94 4 12.88 4 19 C2.68 19 1.36 19 0 19 C0 12.73 0 6.46 0 0 Z " fill="#77CD6B" transform="translate(82,7)"/>
<path d="M0 0 C1.134375 0.020625 2.26875 0.04125 3.4375 0.0625 C3.4375 3.0325 3.4375 6.0025 3.4375 9.0625 C0.7975 9.0625 -1.8425 9.0625 -4.5625 9.0625 C-4.66015625 2.91015625 -4.66015625 2.91015625 -4.5625 1.0625 C-3.5625 0.0625 -3.5625 0.0625 0 0 Z " fill="#FC6E78" transform="translate(39.5625,71.9375)"/>
<path d="M0 0 C1.32 0.33 2.64 0.66 4 1 C4 5.62 4 10.24 4 15 C2.68 15 1.36 15 0 15 C0 10.05 0 5.1 0 0 Z " fill="#E7CA6A" transform="translate(89,11)"/>
<path d="M0 0 C1.98 1.65 3.96 3.3 6 5 C4.35 7.31 2.7 9.62 1 12 C-3 7.375 -3 7.375 -3 4 C-1.5 1.8125 -1.5 1.8125 0 0 Z " fill="#6F81D7" transform="translate(100,100)"/>
<path d="M0 0 C1.65 0 3.3 0 5 0 C4.67 3.96 4.34 7.92 4 12 C2.68 12 1.36 12 0 12 C0 8.04 0 4.08 0 0 Z " fill="#67C949" transform="translate(55,5)"/>
<path d="M0 0 C0.99 0 1.98 0 3 0 C3 4.95 3 9.9 3 15 C2.01 15 1.02 15 0 15 C0 10.05 0 5.1 0 0 Z " fill="#6ACA47" transform="translate(26,66)"/>
<path d="M0 0 C0.99 0 1.98 0 3 0 C3 4.95 3 9.9 3 15 C2.01 15 1.02 15 0 15 C0 10.05 0 5.1 0 0 Z " fill="#7ED162" transform="translate(103,11)"/>
<path d="M0 0 C1.32 0 2.64 0 4 0 C4 3.63 4 7.26 4 11 C2.68 11 1.36 11 0 11 C0 7.37 0 3.74 0 0 Z " fill="#F9931A" transform="translate(45,70)"/>
<path d="M0 0 C-0.33 2.64 -0.66 5.28 -1 8 C-4.36720387 6.60667426 -5.9859524 5.0210714 -8 2 C-2.25 0 -2.25 0 0 0 Z " fill="#68BBFF" transform="translate(111,71)"/>
<path d="M0 0 C0.99 0 1.98 0 3 0 C3 2.97 3 5.94 3 9 C1.68 9 0.36 9 -1 9 C-1.09765625 2.84765625 -1.09765625 2.84765625 -1 1 C-0.67 0.67 -0.34 0.34 0 0 Z " fill="#FB5F6C" transform="translate(36,72)"/>
<path d="M0 0 C0.99 0.33 1.98 0.66 3 1 C3 3.64 3 6.28 3 9 C1.68 9 0.36 9 -1 9 C-1.09765625 2.84765625 -1.09765625 2.84765625 -1 1 C-0.67 0.67 -0.34 0.34 0 0 Z " fill="#E69819" transform="translate(76,17)"/>
<path d="M0 0 C1.65 0.33 3.3 0.66 5 1 C4.67 2.65 4.34 4.3 4 6 C2.35 5.67 0.7 5.34 -1 5 C-0.67 3.35 -0.34 1.7 0 0 Z " fill="#65B9FE" transform="translate(73,88)"/>
<path d="M0 0 C2.31 0 4.62 0 7 0 C6.67 1.32 6.34 2.64 6 4 C4.35 4 2.7 4 1 4 C0.67 2.68 0.34 1.36 0 0 Z " fill="#6EBDFE" transform="translate(22,89)"/>
<path d="M0 0 C0.66 0 1.32 0 2 0 C2 2.97 2 5.94 2 9 C1.01 9 0.02 9 -1 9 C-1.09765625 2.84765625 -1.09765625 2.84765625 -1 1 C-0.67 0.67 -0.34 0.34 0 0 Z " fill="#F4980A" transform="translate(97,17)"/>
<path d="M0 0 C0.99 0 1.98 0 3 0 C3 1.98 3 3.96 3 6 C1.68 6 0.36 6 -1 6 C-1.042721 4.33388095 -1.04063832 2.66617115 -1 1 C-0.67 0.67 -0.34 0.34 0 0 Z " fill="#DF6980" transform="translate(110,20)"/>
<path d="M0 0 C2.31 0 4.62 0 7 0 C7 0.99 7 1.98 7 3 C4.69 3 2.38 3 0 3 C0 2.01 0 1.02 0 0 Z " fill="#8CC9FE" transform="translate(22,103)"/>
<path d="M0 0 C2.31 0 4.62 0 7 0 C7 0.99 7 1.98 7 3 C4.69 3 2.38 3 0 3 C0 2.01 0 1.02 0 0 Z " fill="#8CCAFE" transform="translate(22,96)"/>
</svg>
